<svg xmlns="http://www.w3.org/2000/svg" width="80" height="80" viewBox="0 0 80 80" fill="none"><circle cx="40" cy="40" r="40" fill="url(#paint0_linear_23_10)"></circle><path d="M31.6907 53.6337C31.6907 55.5106 33.2176 57.0375 35.0944 57.0375C36.9712 57.0375 38.4982 55.5106 38.4982 53.6337C38.4982 51.7569 36.9712 50.23 35.0944 50.23C33.2176 50.23 31.6907 51.7569 31.6907 53.6337ZM35.0944 52.4991C35.72 52.4991 36.229 53.0081 36.229 53.6337C36.229 54.2593 35.72 54.7683 35.0944 54.7683C34.4688 54.7683 33.9598 54.2593 33.9598 53.6337C33.9598 53.0081 34.4688 52.4991 35.0944 52.4991Z" fill="white"></path><path d="M43.1121 53.6337C43.1121 55.5106 44.639 57.0375 46.5158 57.0375C48.3926 57.0375 49.9196 55.5106 49.9196 53.6337C49.9196 51.7569 48.3926 50.23 46.5158 50.23C44.639 50.23 43.1121 51.7569 43.1121 53.6337ZM46.5158 52.4991C47.1414 52.4991 47.6504 53.0081 47.6504 53.6337C47.6504 54.2593 47.1414 54.7683 46.5158 54.7683C45.8902 54.7683 45.3812 54.2593 45.3812 53.6337C45.3812 53.0081 45.8902 52.4991 46.5158 52.4991Z" fill="white"></path><path d="M55.5925 27.5383H26.8737C26.4852 26.1784 26.1232 24.9113 25.8123 23.823C25.6732 23.3358 25.2279 23 24.7213 23H19.1346C18.508 23 18 23.508 18 24.1346C18 24.7612 18.508 25.2692 19.1346 25.2692H23.8655C25.1343 29.7104 28.1004 40.092 29.3439 44.4444L28.914 45.304C27.7813 47.5696 29.4309 50.23 31.9585 50.23H51.0542C51.6808 50.23 52.1888 49.722 52.1888 49.0954C52.1888 48.4688 51.6808 47.9608 51.0542 47.9608H31.9585C31.1146 47.9608 30.5666 47.073 30.9436 46.3188L31.2572 45.6917H51.0542C51.5607 45.6917 52.0059 45.3559 52.1451 44.8688L56.6834 28.9846C56.8902 28.2611 56.3466 27.5383 55.5925 27.5383ZM50.1984 43.4225H31.4119C30.7937 41.2587 29.0635 35.2032 27.522 29.8075H54.0884L50.1984 43.4225Z" fill="white"></path><defs><linearGradient id="paint0_linear_23_10" x1="22" y1="-6.5" x2="66" y2="98" gradientUnits="userSpaceOnUse"><stop stop-color="#EA1D2B"></stop><stop offset="1" stop-color="#841018"></stop></linearGradient></defs></svg>