<svg xmlns="http://www.w3.org/2000/svg" width="150" height="25" viewBox="0 0 150 25" fill="none"><path d="M25.1592 8.87673L16.8131 8.10266L13.4978 0.404284C13.2657 -0.134761 12.5014 -0.134761 12.2693 0.404284L8.95403 8.10271L0.607957 8.87673C0.0235669 8.93093 -0.212615 9.65779 0.228295 10.0451L6.52543 15.5771L4.68258 23.7539C4.55354 24.3264 5.17185 24.7756 5.67648 24.476L12.8836 20.1965L20.0907 24.476C20.5953 24.7756 21.2136 24.3264 21.0846 23.7539L19.2417 15.5771L25.5388 10.0451C25.9797 9.65779 25.7436 8.93093 25.1592 8.87673Z" fill="#FFDC64"></path><path d="M13.4978 0.404284C13.2657 -0.134761 12.5014 -0.134761 12.2693 0.404284L8.95403 8.10271L0.607957 8.87673C0.0235669 8.93093 -0.212615 9.65779 0.228295 10.0451L6.52543 15.5771L4.68258 23.7539C4.55354 24.3264 5.17185 24.7756 5.67648 24.476L7.28506 23.5208C7.5077 14.3564 11.7658 7.90266 15.1371 4.21077L13.4978 0.404284Z" fill="#FFC850"></path><path d="M56.1592 8.87673L47.8131 8.10266L44.4978 0.404284C44.2657 -0.134761 43.5014 -0.134761 43.2693 0.404284L39.954 8.10271L31.608 8.87673C31.0236 8.93093 30.7874 9.65779 31.2283 10.0451L37.5254 15.5771L35.6826 23.7539C35.5535 24.3264 36.1719 24.7756 36.6765 24.476L43.8836 20.1965L51.0907 24.476C51.5953 24.7756 52.2136 24.3264 52.0846 23.7539L50.2417 15.5771L56.5388 10.0451C56.9797 9.65779 56.7436 8.93093 56.1592 8.87673Z" fill="#FFDC64"></path><path d="M44.4978 0.404284C44.2657 -0.134761 43.5014 -0.134761 43.2693 0.404284L39.954 8.10271L31.608 8.87673C31.0236 8.93093 30.7874 9.65779 31.2283 10.0451L37.5254 15.5771L35.6826 23.7539C35.5535 24.3264 36.1719 24.7756 36.6765 24.476L38.2851 23.5208C38.5077 14.3564 42.7658 7.90266 46.1371 4.21077L44.4978 0.404284Z" fill="#FFC850"></path><path d="M87.1592 8.87673L78.8131 8.10266L75.4978 0.404284C75.2657 -0.134761 74.5014 -0.134761 74.2693 0.404284L70.954 8.10271L62.608 8.87673C62.0236 8.93093 61.7874 9.65779 62.2283 10.0451L68.5254 15.5771L66.6826 23.7539C66.5535 24.3264 67.1719 24.7756 67.6765 24.476L74.8836 20.1965L82.0907 24.476C82.5953 24.7756 83.2136 24.3264 83.0846 23.7539L81.2417 15.5771L87.5388 10.0451C87.9797 9.65779 87.7436 8.93093 87.1592 8.87673Z" fill="#FFDC64"></path><path d="M75.4978 0.404284C75.2657 -0.134761 74.5014 -0.134761 74.2693 0.404284L70.954 8.10271L62.608 8.87673C62.0236 8.93093 61.7874 9.65779 62.2283 10.0451L68.5254 15.5771L66.6826 23.7539C66.5535 24.3264 67.1719 24.7756 67.6765 24.476L69.2851 23.5208C69.5077 14.3564 73.7658 7.90266 77.1371 4.21077L75.4978 0.404284Z" fill="#FFC850"></path><path d="M118.159 8.87673L109.813 8.10266L106.498 0.404284C106.266 -0.134761 105.501 -0.134761 105.269 0.404284L101.954 8.10271L93.608 8.87673C93.0236 8.93093 92.7874 9.65779 93.2283 10.0451L99.5254 15.5771L97.6826 23.7539C97.5535 24.3264 98.1719 24.7756 98.6765 24.476L105.884 20.1965L113.091 24.476C113.595 24.7756 114.214 24.3264 114.085 23.7539L112.242 15.5771L118.539 10.0451C118.98 9.65779 118.744 8.93093 118.159 8.87673Z" fill="#FFDC64"></path><path d="M106.498 0.404284C106.266 -0.134761 105.501 -0.134761 105.269 0.404284L101.954 8.10271L93.608 8.87673C93.0236 8.93093 92.7874 9.65779 93.2283 10.0451L99.5254 15.5771L97.6826 23.7539C97.5535 24.3264 98.1719 24.7756 98.6765 24.476L100.285 23.5208C100.508 14.3564 104.766 7.90266 108.137 4.21077L106.498 0.404284Z" fill="#FFC850"></path><path d="M149.159 8.87673L140.813 8.10266L137.498 0.404284C137.266 -0.134761 136.501 -0.134761 136.269 0.404284L132.954 8.10271L124.608 8.87673C124.024 8.93093 123.787 9.65779 124.228 10.0451L130.525 15.5771L128.683 23.7539C128.554 24.3264 129.172 24.7756 129.676 24.476L136.884 20.1965L144.091 24.476C144.595 24.7756 145.214 24.3264 145.085 23.7539L143.242 15.5771L149.539 10.0451C149.98 9.65779 149.744 8.93093 149.159 8.87673Z" fill="#FFDC64"></path><path d="M137.498 0.404284C137.266 -0.134761 136.501 -0.134761 136.269 0.404284L132.954 8.10271L124.608 8.87673C124.024 8.93093 123.787 9.65779 124.228 10.0451L130.525 15.5771L128.683 23.7539C128.554 24.3264 129.172 24.7756 129.676 24.476L131.285 23.5208C131.508 14.3564 135.766 7.90266 139.137 4.21077L137.498 0.404284Z" fill="#FFC850"></path></svg>