<svg xmlns="http://www.w3.org/2000/svg" width="121" height="21" viewBox="0 0 121 21" fill="none"><path d="M12.9419 9.90614C12.8455 9.8557 12.7292 9.86314 12.64 9.92514L11.1729 10.9456C11.0945 11.0002 11.0477 11.0898 11.0477 11.1854V15.5654C11.0477 16.1309 11.5078 16.5909 12.0732 16.5909C12.6386 16.5909 13.0987 16.1309 13.0987 15.5654V10.1649C13.0987 10.0563 13.0382 9.95644 12.9419 9.90614Z" fill="#FFEBA1"></path><path d="M9.68355 12.1727C9.58706 12.1223 9.47082 12.1297 9.38148 12.1917L7.91459 13.2122C7.83603 13.2667 7.78938 13.3564 7.78938 13.452V14.9461C7.78938 15.5115 8.24933 15.9715 8.81487 15.9715C9.38026 15.9715 9.84036 15.5115 9.84036 14.9461V12.4315C9.84036 12.3227 9.77988 12.223 9.68355 12.1727Z" fill="#FFEBA1"></path><path d="M4.23824 15.9604C4.14175 15.9101 4.02551 15.9174 3.93617 15.9796L2.46927 16.9999C2.39087 17.0546 2.34407 17.1441 2.34407 17.2397V18.8904C2.34407 19.4558 2.80401 19.9159 3.36956 19.9159C3.93495 19.9159 4.39505 19.4558 4.39505 18.8904V16.2194C4.39505 16.1106 4.33457 16.0109 4.23824 15.9604Z" fill="#FFEBA1"></path><path d="M12.9419 9.90614C12.8456 9.8557 12.7292 9.86314 12.64 9.92514L12.0732 10.3194V15.5654C12.0732 15.9442 11.8667 16.2754 11.5606 16.4529C11.7114 16.5406 11.8865 16.5909 12.0732 16.5909C12.6386 16.5909 13.0987 16.1309 13.0987 15.5654V10.1649C13.0987 10.0563 13.0382 9.95644 12.9419 9.90614Z" fill="#F7D36F"></path><path d="M9.68356 12.1727C9.58708 12.1223 9.47084 12.1297 9.38149 12.1917L8.81488 12.586V14.9461C8.81488 15.3249 8.60824 15.656 8.30206 15.8336C8.4531 15.9211 8.62814 15.9715 8.81488 15.9715C9.38028 15.9715 9.84037 15.5116 9.84037 14.9461V12.4315C9.84037 12.3227 9.7799 12.223 9.68356 12.1727Z" fill="#F7D36F"></path><path d="M4.23823 15.9604C4.14175 15.9101 4.02551 15.9174 3.93616 15.9796L3.36956 16.3737V18.8904C3.36956 19.2691 3.16291 19.6003 2.85674 19.7779C3.00777 19.8655 3.18281 19.9158 3.36956 19.9158C3.93495 19.9158 4.39504 19.4558 4.39504 18.8904V16.2192C4.39504 16.1106 4.33457 16.0109 4.23823 15.9604Z" fill="#F7D36F"></path><path d="M14.4586 9.0159C14.4202 8.96074 14.3913 8.90087 14.3731 8.83842C14.3708 8.83113 14.1489 8.0913 13.3821 7.03877C12.6564 6.04291 11.3007 4.59805 8.96362 3.37062C6.62637 2.1432 4.66748 1.84721 3.43565 1.81515C2.13453 1.78081 1.39895 2.0183 1.39166 2.02073C1.33042 2.04079 1.26585 2.05097 1.19945 2.05097C1.19808 2.05097 1.19656 2.05097 1.1955 2.05097C1.11846 2.05097 1.04446 2.08136 0.989912 2.1356C0.934756 2.19015 0.903759 2.2643 0.903455 2.34179L0.837054 18.2868C0.836598 18.3957 0.896769 18.4958 0.993255 18.5466C1.03595 18.5689 1.0826 18.58 1.12894 18.58C1.18759 18.58 1.24594 18.5624 1.29578 18.5278L14.3855 9.42235C14.5179 9.33027 14.5507 9.14824 14.4586 9.0159Z" fill="#FFDB57"></path><path d="M0.993255 18.5466C1.03595 18.5691 1.08245 18.58 1.12894 18.58C1.18759 18.58 1.24594 18.5624 1.29578 18.5277L14.3855 9.42233C14.5179 9.33025 14.5505 9.14822 14.4585 9.01588C14.4202 8.96072 14.3913 8.90085 14.3729 8.8384C14.3715 8.83354 14.2687 8.49151 13.964 7.94405L0.84222 17.0418L0.837054 18.2869C0.836598 18.3957 0.896769 18.496 0.993255 18.5466Z" fill="#F6C134"></path><path d="M5.8668 6.21918C4.85696 6.21918 4.03539 7.04075 4.03539 8.05044C4.03539 9.06027 4.85696 9.8817 5.8668 9.8817C6.87664 9.8817 7.69806 9.06027 7.69806 8.05044C7.69806 7.0406 6.87664 6.21918 5.8668 6.21918Z" fill="#F2433B"></path><path d="M5.8668 8.59501C5.08336 8.59501 4.41343 8.10027 4.15238 7.40709C4.07702 7.60735 4.03539 7.82403 4.03539 8.05043C4.03539 9.06027 4.85696 9.88169 5.86665 9.88169C6.87648 9.88169 7.69806 9.06027 7.69806 8.05043C7.69806 7.82418 7.65643 7.60735 7.58106 7.40709C7.32002 8.10027 6.65023 8.59501 5.8668 8.59501Z" fill="#D83636"></path><path d="M2.43903 9.20962C2.10353 8.86637 1.65468 8.67066 1.17514 8.65881C1.09689 8.65775 1.02076 8.68662 0.964391 8.74117C0.908171 8.79587 0.876262 8.87093 0.875958 8.94949L0.863195 12.0264C0.862739 12.105 0.89404 12.1802 0.949956 12.2353C1.00466 12.2894 1.07835 12.3197 1.15508 12.3197H1.15995C2.15277 12.3031 2.96036 11.4818 2.96036 10.489C2.96036 10.0079 2.77514 9.55347 2.43903 9.20962Z" fill="#F2433B"></path><path d="M1.15994 11.0146C1.15827 11.0148 1.15675 11.0148 1.15508 11.0148C1.07835 11.0148 1.00465 10.9845 0.949801 10.9304C0.907408 10.8885 0.879146 10.8349 0.868205 10.7771L0.863039 12.0264C0.862735 12.105 0.894036 12.1802 0.949801 12.2353C1.0045 12.2894 1.0782 12.3197 1.15508 12.3197H1.15994C2.15261 12.3031 2.96021 11.4818 2.96021 10.489C2.96021 10.2616 2.91842 10.0403 2.83926 9.83383C2.57867 10.5118 1.92439 11.002 1.15994 11.0146Z" fill="#D83636"></path><path d="M10.1278 9.18427C9.11799 9.18427 8.29657 10.0058 8.29657 11.0155C8.29657 11.7588 8.74041 12.423 9.4272 12.7078C9.46322 12.7226 9.5012 12.7299 9.53904 12.7299C9.59784 12.7299 9.65604 12.7123 9.70572 12.6777L11.8325 11.1983C11.914 11.1415 11.9612 11.0473 11.9576 10.9479C11.9216 9.95889 11.1178 9.18427 10.1278 9.18427Z" fill="#F2433B"></path><path d="M12.529 6.01798C11.9574 5.4143 11.2961 4.84951 10.5633 4.33943C10.4931 4.29065 10.4054 4.27515 10.3229 4.29643C9.5167 4.50611 8.95374 5.235 8.95374 6.06873C8.95374 7.07857 9.77531 7.90014 10.785 7.90014C11.733 7.90014 12.5166 7.18934 12.6076 6.24681C12.6156 6.16263 12.5871 6.07922 12.529 6.01798Z" fill="#F2433B"></path><path d="M12.2894 5.77291C11.9582 6.24972 11.4071 6.55559 10.785 6.55559C10.0122 6.55559 9.35016 6.07422 9.08167 5.39578C8.99886 5.60547 8.95374 5.83293 8.95374 6.06875C8.95374 7.07859 9.77531 7.90001 10.785 7.90001C11.733 7.90001 12.5166 7.18936 12.6076 6.24668C12.6156 6.16266 12.5871 6.07924 12.529 6.01785C12.4509 5.9355 12.3709 5.8539 12.2894 5.77291Z" fill="#D83636"></path><path d="M6.32583 2.43797C6.29878 2.3383 6.22129 2.2605 6.12177 2.23284C5.20112 1.97818 4.2975 1.83763 3.43565 1.81514C3.37366 1.81347 3.31334 1.81271 3.25408 1.81226C3.25332 1.81226 3.25256 1.81226 3.2518 1.81226C3.15121 1.81226 3.05746 1.86407 3.00413 1.94962C2.82285 2.23999 2.72713 2.57488 2.72713 2.91782C2.72713 3.92766 3.5487 4.74908 4.55839 4.74908C5.56823 4.74908 6.3898 3.92766 6.3898 2.91782C6.3898 2.756 6.36822 2.59463 6.32583 2.43797Z" fill="#F2433B"></path><path d="M6.2412 2.29987C5.96055 2.95172 5.31204 3.40939 4.55839 3.40939C3.78483 3.40939 3.12219 2.92696 2.85431 2.24745C2.77074 2.45987 2.72713 2.68688 2.72713 2.91784C2.72713 3.92768 3.5487 4.74925 4.55839 4.74925C5.56822 4.74925 6.38965 3.92768 6.38965 2.91784C6.38965 2.75617 6.36822 2.59465 6.32568 2.43799C6.31109 2.3839 6.28116 2.33649 6.2412 2.29987Z" fill="#D83636"></path><path d="M7.09101 14.2169C6.80656 13.5293 6.14225 13.0852 5.39847 13.0852C4.38864 13.0852 3.56706 13.9066 3.56706 14.9164C3.56706 15.4244 3.78116 15.9141 4.15418 16.2598C4.20995 16.3113 4.28106 16.3376 4.35278 16.3376C4.41082 16.3376 4.46902 16.3204 4.51946 16.2853L6.98799 14.5682C7.10058 14.4899 7.14343 14.3437 7.09101 14.2169Z" fill="#F2433B"></path><path d="M16.1141 8.32682C16.068 8.16986 14.9272 4.45446 9.81088 1.76591C9.80891 1.76485 9.80708 1.76379 9.80511 1.76288C4.68679 -0.924148 0.979896 0.245841 0.824606 0.296895C0.196459 0.503542 -0.146484 1.1829 0.0601629 1.81104C0.160296 2.11539 0.372869 2.36246 0.658833 2.50681C0.944796 2.65131 1.26996 2.67562 1.57082 2.57655C1.5775 2.57442 2.2561 2.36869 3.42046 2.39892C4.5903 2.42947 6.45438 2.71254 8.6921 3.8877C10.9298 5.06285 12.2209 6.43691 12.91 7.38262C13.5959 8.32393 13.8115 8.99964 13.8125 9.00283C13.903 9.31022 14.1075 9.56397 14.3887 9.71743C14.5676 9.81513 14.7636 9.86467 14.9617 9.86467C15.0752 9.86467 15.1895 9.84841 15.3015 9.81544C15.6089 9.72518 15.8626 9.52051 16.0162 9.23926C16.1695 8.95815 16.2043 8.63405 16.1141 8.32682Z" fill="#FF9F34"></path><path d="M15.4149 8.91939C15.4137 8.91544 15.1566 8.11027 14.3395 6.9886C13.5182 5.86161 11.9796 4.22424 9.31307 2.82374C6.64641 1.4234 4.4251 1.08608 3.03115 1.04961C1.64342 1.0136 0.834909 1.25885 0.826856 1.26143C0.560189 1.3491 0.277569 1.35548 0.0101426 1.28209C-0.0124975 1.4547 0.00208941 1.63491 0.060133 1.81102C0.160266 2.11537 0.372839 2.36243 0.658803 2.50678C0.944766 2.65128 1.26993 2.6756 1.57079 2.57653C1.57747 2.5744 2.25607 2.36866 3.42043 2.3989C4.59027 2.42944 6.45435 2.71252 8.69207 3.88767C10.9298 5.06283 12.2209 6.43688 12.91 7.3826C13.5958 8.32391 13.8115 8.99961 13.8125 9.0028C13.9029 9.31019 14.1074 9.56394 14.3887 9.71741C14.5675 9.81511 14.7636 9.86465 14.9617 9.86465C15.0752 9.86465 15.1895 9.84839 15.3014 9.81541C15.4856 9.76132 15.6505 9.6659 15.7862 9.53766C15.6131 9.36884 15.485 9.15779 15.4149 8.91939Z" fill="#FB8F2D"></path><path d="M9.4272 12.7077C9.46322 12.7226 9.5012 12.7299 9.53904 12.7299C9.59784 12.7299 9.65604 12.7123 9.70572 12.6776L11.8325 11.1983C11.914 11.1415 11.9612 11.0473 11.9576 10.9479C11.9398 10.4614 11.736 10.0269 11.4159 9.71074L8.45551 11.7634C8.6424 12.1823 8.98413 12.524 9.4272 12.7077Z" fill="#D83636"></path><path d="M4.15435 16.2598C4.20996 16.3113 4.28123 16.3376 4.35279 16.3376C4.41084 16.3376 4.46919 16.3204 4.51948 16.2853L6.988 14.5682C7.1006 14.4899 7.14345 14.3436 7.09102 14.2169C6.92267 13.8098 6.62105 13.4881 6.24863 13.2933L3.58182 15.1424C3.63515 15.5674 3.83694 15.9658 4.15435 16.2598Z" fill="#D83636"></path><path d="M20.3716 16.4082V4.01241H22.0467L22.7696 6.41045V16.4082H20.3716ZM28.941 16.4082L21.5882 6.88653L22.0467 4.01241L29.3995 13.534L28.941 16.4082ZM28.941 16.4082L28.2534 14.0806V4.01241H30.669V16.4082H28.941ZM32.9359 16.4082V7.89159H35.2634V16.4082H32.9359ZM34.0997 6.51625C33.7235 6.51625 33.412 6.39282 33.1652 6.14596C32.9183 5.88735 32.7949 5.56996 32.7949 5.1938C32.7949 4.82939 32.9183 4.51788 33.1652 4.25927C33.412 4.00066 33.7235 3.87135 34.0997 3.87135C34.4876 3.87135 34.7991 4.00066 35.0342 4.25927C35.2811 4.51788 35.4045 4.82939 35.4045 5.1938C35.4045 5.56996 35.2811 5.88735 35.0342 6.14596C34.7991 6.39282 34.4876 6.51625 34.0997 6.51625ZM43.0403 16.4082V11.5239C43.0403 11.0184 42.8816 10.607 42.5642 10.2896C42.2468 9.97224 41.8354 9.81355 41.3299 9.81355C41.0007 9.81355 40.7069 9.88408 40.4483 10.0251C40.1896 10.1662 39.9839 10.366 39.8311 10.6247C39.6901 10.8833 39.6195 11.183 39.6195 11.5239L38.7203 11.0655C38.7203 10.3954 38.8613 9.81355 39.1434 9.31984C39.4373 8.81437 39.837 8.42057 40.3425 8.13845C40.8597 7.85633 41.4416 7.71527 42.0881 7.71527C42.7111 7.71527 43.2695 7.87396 43.7632 8.19135C44.2569 8.49698 44.6448 8.90253 44.9269 9.408C45.2091 9.90171 45.3501 10.4366 45.3501 11.0126V16.4082H43.0403ZM37.3096 16.4082V7.89159H39.6195V16.4082H37.3096ZM46.5231 20.1815C45.9118 20.1815 45.4064 20.0816 45.0067 19.8818C44.5953 19.682 44.225 19.3998 43.8959 19.0354L45.3594 17.5719C45.5004 17.7482 45.6532 17.8717 45.8178 17.9422C45.9706 18.0245 46.1528 18.0656 46.3644 18.0656C46.6583 18.0656 46.9052 17.9775 47.105 17.8011C47.3048 17.6248 47.4047 17.3662 47.4047 17.0253V7.89159H49.7146V16.99C49.7146 17.6601 49.5677 18.2302 49.2738 18.7004C48.9917 19.1824 48.6096 19.5468 48.1277 19.7936C47.6575 20.0522 47.1226 20.1815 46.5231 20.1815ZM48.5861 6.51625C48.21 6.51625 47.8985 6.39282 47.6516 6.14596C47.4047 5.88735 47.2813 5.56996 47.2813 5.1938C47.2813 4.82939 47.4047 4.51788 47.6516 4.25927C47.8985 4.00066 48.21 3.87135 48.5861 3.87135C48.9741 3.87135 49.2856 4.00066 49.5207 4.25927C49.7675 4.51788 49.8909 4.82939 49.8909 5.1938C49.8909 5.56996 49.7675 5.88735 49.5207 6.14596C49.2856 6.39282 48.9741 6.51625 48.5861 6.51625ZM55.3013 16.5845C54.5254 16.5845 53.826 16.3905 53.203 16.0026C52.58 15.6147 52.0921 15.0857 51.7395 14.4157C51.3868 13.7456 51.2105 12.9933 51.2105 12.1587C51.2105 11.3123 51.3868 10.5541 51.7395 9.88408C52.0921 9.21404 52.58 8.68506 53.203 8.29714C53.826 7.90923 54.5254 7.71527 55.3013 7.71527C55.9125 7.71527 56.4591 7.8387 56.9411 8.08555C57.4231 8.33241 57.8051 8.67918 58.0872 9.12588C58.3811 9.56082 58.5398 10.0545 58.5633 10.607V13.6751C58.5398 14.2393 58.3811 14.7389 58.0872 15.1739C57.8051 15.6088 57.4231 15.9556 56.9411 16.2142C56.4591 16.4611 55.9125 16.5845 55.3013 16.5845ZM55.7245 14.4509C56.371 14.4509 56.8941 14.2393 57.2938 13.8162C57.6934 13.3812 57.8933 12.8229 57.8933 12.1411C57.8933 11.6944 57.7992 11.3006 57.6111 10.9597C57.4348 10.607 57.1821 10.3367 56.8529 10.1486C56.5356 9.94873 56.1594 9.84882 55.7245 9.84882C55.3013 9.84882 54.9251 9.94873 54.596 10.1486C54.2786 10.3367 54.0258 10.607 53.8378 10.9597C53.6614 11.3006 53.5733 11.6944 53.5733 12.1411C53.5733 12.5995 53.6614 13.0051 53.8378 13.3577C54.0258 13.6986 54.2786 13.969 54.596 14.1688C54.9251 14.3569 55.3013 14.4509 55.7245 14.4509ZM57.7698 16.4082V14.1159L58.1401 12.0353L57.7698 9.98988V7.89159H60.0621V16.4082H57.7698Z" fill="#424E5F"></path><rect x="65" width="55.8367" height="20.5714" rx="2.93877" fill="url(#paint0_linear_5_124)"></rect><path d="M75.465 11.41V10.016H78.678C79.12 10.016 79.511 9.92533 79.851 9.744C80.2023 9.56267 80.4743 9.30767 80.667 8.979C80.871 8.65033 80.973 8.25933 80.973 7.806C80.973 7.35267 80.871 6.96167 80.667 6.633C80.4743 6.30433 80.2023 6.04933 79.851 5.868C79.511 5.68667 79.12 5.596 78.678 5.596H75.465V4.202H78.78C79.5053 4.202 80.1513 4.34933 80.718 4.644C81.296 4.93867 81.7493 5.358 82.078 5.902C82.418 6.43467 82.588 7.06933 82.588 7.806C82.588 8.53133 82.418 9.166 82.078 9.71C81.7493 10.2427 81.296 10.662 80.718 10.968C80.1513 11.2627 79.5053 11.41 78.78 11.41H75.465ZM74.394 16V4.202H75.992V16H74.394ZM84.4486 16V7.925H85.9786V16H84.4486ZM85.2136 6.31C84.9302 6.31 84.6979 6.21933 84.5166 6.038C84.3352 5.84533 84.2446 5.60733 84.2446 5.324C84.2446 5.052 84.3352 4.82533 84.5166 4.644C84.6979 4.45133 84.9302 4.355 85.2136 4.355C85.4969 4.355 85.7292 4.45133 85.9106 4.644C86.0919 4.82533 86.1826 5.052 86.1826 5.324C86.1826 5.60733 86.0919 5.84533 85.9106 6.038C85.7292 6.21933 85.4969 6.31 85.2136 6.31ZM87.5873 15.167L92.3813 8.758H94.1833L89.3893 15.167H87.5873ZM87.5873 16V15.167L88.9473 14.606H94.0813V16H87.5873ZM87.8763 9.319V7.925H94.1833V8.758L92.7723 9.319H87.8763ZM95.1908 15.167L99.9848 8.758H101.787L96.9928 15.167H95.1908ZM95.1908 16V15.167L96.5508 14.606H101.685V16H95.1908ZM95.4798 9.319V7.925H101.787V8.758L100.376 9.319H95.4798ZM106.725 16.17C105.988 16.17 105.32 15.9887 104.719 15.626C104.118 15.252 103.642 14.7477 103.291 14.113C102.951 13.4783 102.781 12.7643 102.781 11.971C102.781 11.1777 102.951 10.4637 103.291 9.829C103.642 9.19433 104.113 8.69 104.702 8.316C105.303 7.942 105.977 7.755 106.725 7.755C107.337 7.755 107.881 7.88533 108.357 8.146C108.844 8.39533 109.235 8.74667 109.53 9.2C109.825 9.642 109.989 10.1577 110.023 10.747V13.178C109.989 13.756 109.825 14.2717 109.53 14.725C109.247 15.1783 108.861 15.5353 108.374 15.796C107.898 16.0453 107.348 16.17 106.725 16.17ZM106.98 14.725C107.739 14.725 108.351 14.47 108.816 13.96C109.281 13.4387 109.513 12.7757 109.513 11.971C109.513 11.4157 109.405 10.934 109.19 10.526C108.986 10.1067 108.691 9.78367 108.306 9.557C107.921 9.319 107.473 9.2 106.963 9.2C106.453 9.2 106 9.319 105.603 9.557C105.218 9.795 104.912 10.1237 104.685 10.543C104.47 10.951 104.362 11.4213 104.362 11.954C104.362 12.498 104.47 12.9797 104.685 13.399C104.912 13.807 105.223 14.13 105.62 14.368C106.017 14.606 106.47 14.725 106.98 14.725ZM109.411 16V13.824L109.7 11.852L109.411 9.897V7.925H110.958V16H109.411Z" fill="white"></path><defs><linearGradient id="paint0_linear_5_124" x1="65" y1="10.2857" x2="120.837" y2="10.2857" gradientUnits="userSpaceOnUse"><stop stop-color="#EA1D2B"></stop><stop offset="1" stop-color="#841018"></stop></linearGradient></defs></svg>